<svg xmlns="http://www.w3.org/2000/svg" viewBox="0 0 1440 900" preserveAspectRatio="xMidYMid slice">
  <defs>
    <radialGradient id="bgGlow" cx="20%" cy="60%" r="55%">
      <stop offset="0%" stop-color="#4ade80" stop-opacity="0.07"/>
      <stop offset="100%" stop-color="#0a0a0a" stop-opacity="0"/>
    </radialGradient>
    <radialGradient id="bgGlow2" cx="85%" cy="30%" r="45%">
      <stop offset="0%" stop-color="#16a34a" stop-opacity="0.05"/>
      <stop offset="100%" stop-color="#0a0a0a" stop-opacity="0"/>
    </radialGradient>
    <radialGradient id="radarGlow" cx="50%" cy="50%" r="50%">
      <stop offset="0%" stop-color="#4ade80" stop-opacity="0.25"/>
      <stop offset="60%" stop-color="#4ade80" stop-opacity="0.05"/>
      <stop offset="100%" stop-color="#4ade80" stop-opacity="0"/>
    </radialGradient>
    <filter id="nodeGlow">
      <feGaussianBlur stdDeviation="3" result="blur"/>
      <feMerge><feMergeNode in="blur"/><feMergeNode in="SourceGraphic"/></feMerge>
    </filter>
    <filter id="lineGlow">
      <feGaussianBlur stdDeviation="1.5" result="blur"/>
      <feMerge><feMergeNode in="blur"/><feMergeNode in="SourceGraphic"/></feMerge>
    </filter>
    <mask id="fadeLeft">
      <linearGradient id="fadeGradL" x1="0" y1="0" x2="1" y2="0">
        <stop offset="0%" stop-color="white" stop-opacity="0"/>
        <stop offset="30%" stop-color="white" stop-opacity="1"/>
        <stop offset="100%" stop-color="white" stop-opacity="1"/>
      </linearGradient>
      <rect width="1440" height="900" fill="url(#fadeGradL)"/>
    </mask>
  </defs>

  <rect width="1440" height="900" fill="#0a0a0a"/>
  <rect width="1440" height="900" fill="url(#bgGlow)"/>
  <rect width="1440" height="900" fill="url(#bgGlow2)"/>

  <g opacity="0.04" stroke="#4ade80" stroke-width="0.8" mask="url(#fadeLeft)">
    <line x1="0" y1="60" x2="1440" y2="60"/>
    <line x1="0" y1="120" x2="1440" y2="120"/>
    <line x1="0" y1="180" x2="1440" y2="180"/>
    <line x1="0" y1="240" x2="1440" y2="240"/>
    <line x1="0" y1="300" x2="1440" y2="300"/>
    <line x1="0" y1="360" x2="1440" y2="360"/>
    <line x1="0" y1="420" x2="1440" y2="420"/>
    <line x1="0" y1="480" x2="1440" y2="480"/>
    <line x1="0" y1="540" x2="1440" y2="540"/>
    <line x1="0" y1="600" x2="1440" y2="600"/>
    <line x1="0" y1="660" x2="1440" y2="660"/>
    <line x1="0" y1="720" x2="1440" y2="720"/>
    <line x1="0" y1="780" x2="1440" y2="780"/>
    <line x1="0" y1="840" x2="1440" y2="840"/>
    <line x1="80" y1="0" x2="80" y2="900"/>
    <line x1="160" y1="0" x2="160" y2="900"/>
    <line x1="240" y1="0" x2="240" y2="900"/>
    <line x1="320" y1="0" x2="320" y2="900"/>
    <line x1="400" y1="0" x2="400" y2="900"/>
    <line x1="480" y1="0" x2="480" y2="900"/>
    <line x1="560" y1="0" x2="560" y2="900"/>
    <line x1="640" y1="0" x2="640" y2="900"/>
    <line x1="720" y1="0" x2="720" y2="900"/>
    <line x1="800" y1="0" x2="800" y2="900"/>
    <line x1="880" y1="0" x2="880" y2="900"/>
    <line x1="960" y1="0" x2="960" y2="900"/>
    <line x1="1040" y1="0" x2="1040" y2="900"/>
    <line x1="1120" y1="0" x2="1120" y2="900"/>
    <line x1="1200" y1="0" x2="1200" y2="900"/>
    <line x1="1280" y1="0" x2="1280" y2="900"/>
    <line x1="1360" y1="0" x2="1360" y2="900"/>
  </g>

  <g opacity="0.06" stroke="#4ade80" stroke-width="0.4" mask="url(#fadeLeft)">
    <line x1="0" y1="30" x2="1440" y2="30"/>
    <line x1="0" y1="90" x2="1440" y2="90"/>
    <line x1="0" y1="150" x2="1440" y2="150"/>
    <line x1="0" y1="210" x2="1440" y2="210"/>
    <line x1="0" y1="270" x2="1440" y2="270"/>
    <line x1="0" y1="330" x2="1440" y2="330"/>
    <line x1="0" y1="390" x2="1440" y2="390"/>
    <line x1="0" y1="450" x2="1440" y2="450"/>
    <line x1="0" y1="510" x2="1440" y2="510"/>
    <line x1="0" y1="570" x2="1440" y2="570"/>
    <line x1="0" y1="630" x2="1440" y2="630"/>
    <line x1="0" y1="690" x2="1440" y2="690"/>
    <line x1="0" y1="750" x2="1440" y2="750"/>
    <line x1="0" y1="810" x2="1440" y2="810"/>
    <line x1="0" y1="870" x2="1440" y2="870"/>
    <line x1="40" y1="0" x2="40" y2="900"/>
    <line x1="120" y1="0" x2="120" y2="900"/>
    <line x1="200" y1="0" x2="200" y2="900"/>
    <line x1="280" y1="0" x2="280" y2="900"/>
    <line x1="360" y1="0" x2="360" y2="900"/>
    <line x1="440" y1="0" x2="440" y2="900"/>
    <line x1="520" y1="0" x2="520" y2="900"/>
    <line x1="600" y1="0" x2="600" y2="900"/>
    <line x1="680" y1="0" x2="680" y2="900"/>
    <line x1="760" y1="0" x2="760" y2="900"/>
    <line x1="840" y1="0" x2="840" y2="900"/>
    <line x1="920" y1="0" x2="920" y2="900"/>
    <line x1="1000" y1="0" x2="1000" y2="900"/>
    <line x1="1080" y1="0" x2="1080" y2="900"/>
    <line x1="1160" y1="0" x2="1160" y2="900"/>
    <line x1="1240" y1="0" x2="1240" y2="900"/>
    <line x1="1320" y1="0" x2="1320" y2="900"/>
    <line x1="1400" y1="0" x2="1400" y2="900"/>
  </g>

  <g filter="url(#lineGlow)" opacity="0.35">
    <line x1="200" y1="180" x2="980" y2="520" stroke="#4ade80" stroke-width="0.8"/>
    <line x1="980" y1="520" x2="1280" y2="200" stroke="#4ade80" stroke-width="0.8"/>
    <line x1="980" y1="520" x2="1100" y2="700" stroke="#4ade80" stroke-width="0.6"/>
    <line x1="200" y1="180" x2="560" y2="380" stroke="#4ade80" stroke-width="0.6"/>
    <line x1="560" y1="380" x2="980" y2="520" stroke="#4ade80" stroke-width="0.6"/>
    <line x1="560" y1="380" x2="760" y2="160" stroke="#4ade80" stroke-width="0.5" opacity="0.6"/>
    <line x1="1280" y1="200" x2="1380" y2="420" stroke="#4ade80" stroke-width="0.5" opacity="0.5"/>
    <line x1="1100" y1="700" x2="820" y2="820" stroke="#4ade80" stroke-width="0.5" opacity="0.4"/>
    <line x1="820" y1="820" x2="400" y2="750" stroke="#4ade80" stroke-width="0.5" opacity="0.3"/>
  </g>

  <g filter="url(#nodeGlow)">
    <circle cx="980" cy="520" r="5" fill="#4ade80" opacity="0.9">
      <animate attributeName="opacity" values="0.9;0.4;0.9" dur="3s" repeatCount="indefinite"/>
    </circle>
    <circle cx="980" cy="520" r="14" fill="none" stroke="#4ade80" stroke-width="1" opacity="0.3">
      <animate attributeName="r" values="14;22;14" dur="3s" repeatCount="indefinite"/>
      <animate attributeName="opacity" values="0.3;0;0.3" dur="3s" repeatCount="indefinite"/>
    </circle>

    <circle cx="200" cy="180" r="4" fill="#4ade80" opacity="0.7">
      <animate attributeName="opacity" values="0.7;0.3;0.7" dur="4s" repeatCount="indefinite"/>
    </circle>
    <circle cx="200" cy="180" r="10" fill="none" stroke="#4ade80" stroke-width="0.8" opacity="0.2">
      <animate attributeName="r" values="10;18;10" dur="4s" repeatCount="indefinite"/>
      <animate attributeName="opacity" values="0.2;0;0.2" dur="4s" repeatCount="indefinite"/>
    </circle>

    <circle cx="1280" cy="200" r="3.5" fill="#4ade80" opacity="0.6">
      <animate attributeName="opacity" values="0.6;0.2;0.6" dur="5s" repeatCount="indefinite"/>
    </circle>
    <circle cx="560" cy="380" r="3" fill="#4ade80" opacity="0.5">
      <animate attributeName="opacity" values="0.5;0.15;0.5" dur="3.5s" repeatCount="indefinite"/>
    </circle>
    <circle cx="1100" cy="700" r="3" fill="#4ade80" opacity="0.5">
      <animate attributeName="opacity" values="0.5;0.1;0.5" dur="4.5s" repeatCount="indefinite"/>
    </circle>
    <circle cx="760" cy="160" r="2.5" fill="#4ade80" opacity="0.4">
      <animate attributeName="opacity" values="0.4;0.1;0.4" dur="6s" repeatCount="indefinite"/>
    </circle>
    <circle cx="820" cy="820" r="2.5" fill="#4ade80" opacity="0.35">
      <animate attributeName="opacity" values="0.35;0.1;0.35" dur="5.5s" repeatCount="indefinite"/>
    </circle>
    <circle cx="1380" cy="420" r="2.5" fill="#4ade80" opacity="0.35">
      <animate attributeName="opacity" values="0.35;0.1;0.35" dur="7s" repeatCount="indefinite"/>
    </circle>
    <circle cx="400" cy="750" r="2" fill="#4ade80" opacity="0.3">
      <animate attributeName="opacity" values="0.3;0.05;0.3" dur="6.5s" repeatCount="indefinite"/>
    </circle>
  </g>

  <g opacity="0.12" stroke="#4ade80" fill="none" mask="url(#fadeLeft)">
    <circle cx="1180" cy="460" r="120" stroke-width="0.8"/>
    <circle cx="1180" cy="460" r="80" stroke-width="0.6"/>
    <circle cx="1180" cy="460" r="40" stroke-width="0.5"/>
    <line x1="1060" y1="460" x2="1300" y2="460" stroke-width="0.5"/>
    <line x1="1180" y1="340" x2="1180" y2="580" stroke-width="0.5"/>
    <line x1="1095" y1="375" x2="1265" y2="545" stroke-width="0.4"/>
    <line x1="1095" y1="545" x2="1265" y2="375" stroke-width="0.4"/>
  </g>

  <g opacity="0.06">
    <line x1="0" y1="0" x2="400" y2="900" stroke="#4ade80" stroke-width="1.5"/>
    <line x1="100" y1="0" x2="500" y2="900" stroke="#4ade80" stroke-width="0.8"/>
    <line x1="260" y1="0" x2="660" y2="900" stroke="#4ade80" stroke-width="0.6"/>
  </g>

  <g opacity="0.03" fill="#4ade80" font-family="Courier New, monospace" font-size="11">
    <text x="1050" y="100">SYN 0x4a2f</text>
    <text x="1150" y="155">ACK 0x00ff</text>
    <text x="1020" y="310">RST 0x1337</text>
    <text x="1200" y="620">0x4e45544f</text>
    <text x="1060" y="780">ESTABLISHED</text>
    <text x="1250" y="850">0xdeadbeef</text>
  </g>
</svg>
